<svg width="109" height="25" viewBox="0 0 109 25" fill="none" xmlns="http://www.w3.org/2000/svg">
<g clip-path="url(#clip0_344_191)">
<path d="M72.1584 0L63.1046 10.1333V0H56.9064V24.9803H63.1046V14.8471L72.1584 24.9803H80.4349L69.2771 12.4894L80.4349 0H72.1584Z" fill="white"/>
<path d="M13.7804 8.28733L17.2652 16.4097H10.2971L13.7819 8.28733H13.7804ZM11.3362 0.0620117L0 24.9999H6.55216L8.11306 21.5641H19.4493L21.113 24.9999H27.5623L16.276 0.0620117H11.3362Z" fill="white"/>
<path d="M95.2196 8.28733L98.7044 16.4097H91.7363L95.2196 8.28733ZM92.7754 0.0620117L81.4392 24.9999H87.9914L89.5508 21.5641H100.888L102.552 24.9999H109L97.7152 0.0620117H92.7754Z" fill="white"/>
<path d="M45.2828 0.0620117L36.2456 10.1786V0.0620117H30.0565V24.9999H36.2456V14.8833L45.2828 24.9999H53.5471L42.4076 12.5302L53.5471 0.0620117H45.2828Z" fill="white"/>
</g>
<defs>
<clipPath id="clip0_344_191">
<rect width="109" height="25" fill="white"/>
</clipPath>
</defs>
</svg>
